<?xml version="1.0" encoding="UTF-8" standalone="no"?>
<!-- Created with Inkscape (http://www.inkscape.org/) -->

<svg
   xmlns:dc="http://purl.org/dc/elements/1.1/"
   xmlns:cc="http://creativecommons.org/ns#"
   xmlns:rdf="http://www.w3.org/1999/02/22-rdf-syntax-ns#"
   xmlns:svg="http://www.w3.org/2000/svg"
   xmlns="http://www.w3.org/2000/svg"
   xmlns:sodipodi="http://sodipodi.sourceforge.net/DTD/sodipodi-0.dtd"
   xmlns:inkscape="http://www.inkscape.org/namespaces/inkscape"
   width="100"
   height="100"
   viewBox="0 0 100 100"
   version="1.1"
   id="svg1383"
   inkscape:version="0.92.3 (2405546, 2018-03-11)"
   sodipodi:docname="custom_compressor.svg">
  <defs
     id="defs1377" />
  <sodipodi:namedview
     id="base"
     pagecolor="#ffffff"
     bordercolor="#666666"
     borderopacity="1.0"
     inkscape:pageopacity="0.0"
     inkscape:pageshadow="2"
     inkscape:zoom="5.6"
     inkscape:cx="28.767255"
     inkscape:cy="85.216643"
     inkscape:document-units="px"
     inkscape:current-layer="layer1"
     showgrid="false"
     units="px"
     inkscape:window-width="1920"
     inkscape:window-height="1137"
     inkscape:window-x="-8"
     inkscape:window-y="-8"
     inkscape:window-maximized="1"
     showguides="true"
     inkscape:guide-bbox="true" />
  <metadata
     id="metadata1380">
    <rdf:RDF>
      <cc:Work
         rdf:about="">
        <dc:format>image/svg+xml</dc:format>
        <dc:type
           rdf:resource="http://purl.org/dc/dcmitype/StillImage" />
        <dc:title></dc:title>
      </cc:Work>
    </rdf:RDF>
  </metadata>
  <g
     inkscape:label="Layer 1"
     inkscape:groupmode="layer"
     id="layer1"
     transform="translate(0,-270.54165)">
    <path
       inkscape:connector-curvature="0"
       id="path124"
       style="fill:#999999;stroke:none;stroke-width:1.01358509"
       d="m 95.425252,298.8413 v -1.23169 -22.76837 H 72.194949 v 18.97365 h -2.609091 c -0.242424,0 -0.610101,-0.53398 -0.610101,-1.3395 v -0.893 h 0.0091 c 0.361616,0 0.655556,-0.29597 0.655556,-0.66008 v -7.26298 c 0,-0.36512 -0.289212,-0.66009 -0.655556,-0.66009 h -0.0091 v -0.56854 c 0,-0.51873 -0.169697,-0.98963 -0.443434,-1.369 v -0.19324 c 0,-0.49327 -0.39697,-0.893 -0.886869,-0.893 -3.979977,-1.6e-4 -8.227242,-10e-4 -11.687879,-10e-4 v -0.64909 h -1.140404 v -0.45792 c 0,-0.0112 -0.004,-0.0213 -0.0051,-0.0315 h 3.287879 1.773738 c 0.162626,0 0.297979,-0.0926 0.375757,-0.22275 h 1.077778 v -1.56224 h -1.010101 v -1.61817 h 1.010101 v -1.56225 h -1.010101 v -1.61818 h 1.010101 v -1.56224 H 60.19995 c -0.08081,-0.0905 -0.23816,-0.0488 -0.325252,-0.14849 H 58.101009 43.617173 41.843435 c -0.130303,0 -0.244444,0.059 -0.325252,0.14849 H 40.48889 v 1.56224 h 0.911111 v 1.61818 H 40.48889 v 1.56222 h 0.911111 v 1.61818 H 40.48889 v 1.56224 h 0.979798 c 0.07677,0.1312 0.26787,0.34622 0.375757,0.22275 h 1.773738 3.287879 c 0,0.0111 -0.0051,0.0213 -0.0051,0.0315 v 0.45792 h -1.140404 v 0.64909 h -1.227273 l -17.28232,-0.008 -0.06314,-3.06093 -1.551515,-0.27869 v -0.90723 H 6.569697 v 19.78323 h 13.59697 v 3.22313 H 5.239394 C 2.3454546,298.72582 0,306.60472 0,313.7548 c 0,7.15009 2.3454546,14.97635 5.239394,14.97635 l 18.419192,10e-4 h 0.07374 v 4.89195 l -7.172728,0.43006 v 1.48799 H 29.57576 v -1.78601 h 7.163637 0.134343 c 0.265657,0.60924 0.90101,1.0415 1.639394,1.0415 h 2.438384 c 0.738384,0 1.373737,-0.43226 1.639394,-1.0415 h 0.134343 12.968687 v 0.7252 h 2.808081 c 1.49899,0 2.783839,-0.90317 3.362627,-2.19486 h 1.948483 v 0.39056 h 3.547474 c 0.489899,0 0.886869,-0.39973 0.886869,-0.89301 v -3.05289 h 3.219192 v 6.81 H 84.48182 v -1.48799 l -7.172728,-0.43006 v -4.89094 h 17.451516 c 2.893939,0 5.23939,-7.82626 5.23939,-14.97636 0,-6.59271 -1.995956,-14.10492 -4.574744,-14.91452 z m -48.730301,-7.25891 h 3.587878 c 0.911112,0.49837 1.954546,0.78112 3.064647,0.78112 1.110099,0 2.153533,-0.28275 3.064644,-0.78112 h 0.260607 v 1.56325 c 0,0.61533 -0.59697,1.11574 -1.330304,1.11574 h -5.763634 c -1.242424,0 -2.216162,0.63771 -2.216162,1.45137 v 0.55737 h -0.665656 v -4.68773 z m -21.059597,3.34823 1.551515,-0.27868 v -3.08783 l 18.623233,0.0183 v 4.68773 h -1.749495 c -1.116162,0 -2.020202,0.91029 -2.020202,2.03416 v 0.42107 h -9.015152 v -3.64623 h -7.389899 z m 13.339394,36.51984 h -0.461616 c -0.659596,0 -1.230303,0.34783 -1.536364,0.85535 h -0.237373 -7.163637 v -3.57364 h 9.39899 z m -7.723232,-32.72512 h -9.311111 v -2.15722 h 9.311111 z m 24.442424,32.31709 v 1.2644 H 42.724243 42.48687 c -0.306061,-0.50751 -0.878933,-0.97817 -1.536364,-0.85537 h -0.535354 v -2.71929 h 23.397979 v 0.50511 h -1.948483 c -3.009468,0.19197 -2.171724,1.80515 -3.362627,1.80515 H 56.394 m 6.227211,-32.31709 H 50.909092 v -0.42106 c 0,-1.12387 -0.90404,-2.03416 -2.020202,-2.03416 h -0.640404 v -0.55737 c 0,-0.1963 0.50505,-0.55836 1.330303,-0.55836 h 5.763634 c 1.222223,0 2.216162,-0.90114 2.216162,-2.00875 v -1.56325 h 3.344445 c -0.314142,0.13731 -0.535354,0.45158 -0.535354,0.81875 v 2.56712 c 0,0.49329 1.381142,0.89299 0.886869,0.89299 h 1.366666 z m 5.468687,-7.14295 v 0.0631 c -0.03232,-0.0193 -0.05757,-0.0479 -0.09293,-0.0631 z m 4.105051,6.02722 v 1.11573 h -5.916162 v -2.86511 h 1.366667 c 0.489899,0 0.886869,-0.39971 0.886869,-0.893 v -0.89605 c 0.268687,0.39463 0.638384,0.63567 1.052525,0.63567 h 2.610101 z m 21.531313,1.11573 H 73.894949 v -1.11573 h 19.831313 z"
       sodipodi:nodetypes="cccccsscsssscscsccccsccsccccccccccccsccsccccccccccccsccsccccccccccccssccccccccccssccccscccsscccccccssccccsccsssscccccccccssccccccscccccccccccccccscccccscccsscssssccsssccccccccccsscsccccccc" />
    <circle
       style="opacity:0.93999999;fill:#00ff00;stroke:none;stroke-width:34;stroke-miterlimit:4;stroke-dasharray:none;stroke-opacity:1"
       id="path1942"
       cx="84.035713"
       cy="285.82736"
       r="6" />
  </g>
</svg>
