<?xml version="1.0" encoding="UTF-8" standalone="no"?>
<svg
   xmlns:dc="http://purl.org/dc/elements/1.1/"
   xmlns:cc="http://creativecommons.org/ns#"
   xmlns:rdf="http://www.w3.org/1999/02/22-rdf-syntax-ns#"
   xmlns:svg="http://www.w3.org/2000/svg"
   xmlns="http://www.w3.org/2000/svg"
   xmlns:sodipodi="http://sodipodi.sourceforge.net/DTD/sodipodi-0.dtd"
   xmlns:inkscape="http://www.inkscape.org/namespaces/inkscape"
   version="1.1"
   id="Layer_1"
   x="0px"
   y="0px"
   width="100px"
   height="100px"
   viewBox="0 0 100 100"
   enable-background="0 0 100 100"
   xml:space="preserve"
   sodipodi:docname="fan.svg"
   inkscape:version="0.92.3 (2405546, 2018-03-11)"><metadata
   id="metadata3942"><rdf:RDF><cc:Work
       rdf:about=""><dc:format>image/svg+xml</dc:format><dc:type
         rdf:resource="http://purl.org/dc/dcmitype/StillImage" /></cc:Work></rdf:RDF></metadata><sodipodi:namedview
   pagecolor="#ffffff"
   bordercolor="#666666"
   borderopacity="1"
   objecttolerance="10"
   gridtolerance="10"
   guidetolerance="10"
   inkscape:pageopacity="0"
   inkscape:pageshadow="2"
   inkscape:window-width="1920"
   inkscape:window-height="1137"
   id="namedview3940"
   showgrid="false"
   inkscape:zoom="4.72"
   inkscape:cx="-3.6534802"
   inkscape:cy="50"
   inkscape:window-x="-8"
   inkscape:window-y="-8"
   inkscape:window-maximized="1"
   inkscape:current-layer="Layer_1" /><desc
   id="desc3874">Copyright Opto 22</desc> <desc
   id="desc3876">Created with Snap</desc><defs
   id="defs3878" /><g
   id="g3937"
   style="display:inline"><g
     id="g3935"
     style="display:inline">

<g
   id="dark"
   style="display:inline">
	<path
   d="m 57.75,47.407 c 0,0 16.75,-15.5 25.75,-15.5 9,0 7,20.5 4.5,23.75 -2.5,3.25 -31,-3 -31,-3 z"
   style="fill:#808080"
   id="path3883"
   inkscape:connector-curvature="0" />
	<path
   d="m 42.365,52.593 c 0,0 -16.75,15.5 -25.75,15.5 -9,0 -7,-20.5 -4.5,-23.75 2.5,-3.25 31,3 31,3 z"
   style="fill:#808080"
   id="path3885"
   inkscape:connector-curvature="0" />
	<path
   d="m 52.651,57.692 c 0,0 15.5,16.75 15.5,25.75 0,9 -20.5,7 -23.75,4.5 -3.25,-2.5 3,-31 3,-31 z"
   style="fill:#808080"
   id="path3887"
   inkscape:connector-curvature="0" />
	<path
   d="m 47.464,42.308 c 0,0 -15.5,-16.75 -15.5,-25.75 0,-9 20.5,-7 23.75,-4.5 3.25,2.5 -3,31 -3,31 z"
   style="display:inline;fill:#808080"
   id="path3889"
   inkscape:connector-curvature="0" />
</g>
<g
   id="shape"
   style="display:inline">
	<path
   d="M 0,0 V 100 H 100 V 0 Z M 50,91.75 C 26.942,91.75 8.25,73.058 8.25,50 8.25,26.942 26.942,8.25 50,8.25 73.058,8.25 91.75,26.942 91.75,50 91.75,73.058 73.058,91.75 50,91.75 Z"
   style="display:inline;fill:#999999"
   id="path3892"
   inkscape:connector-curvature="0" />
	<path
   d="m 58.75,50 c 0,-1.874 -0.595,-3.607 -1.598,-5.031 l 33.43,-33.43 -2.121,-2.121 -33.43,33.43 C 53.607,41.845 51.874,41.25 50,41.25 c -1.874,0 -3.607,0.595 -5.031,1.598 l -33.43,-33.43 -2.121,2.121 33.43,33.43 C 41.845,46.393 41.25,48.126 41.25,50 c 0,1.874 0.595,3.607 1.598,5.031 l -33.43,33.43 2.121,2.121 33.43,-33.43 c 1.424,1.003 3.156,1.598 5.031,1.598 1.875,0 3.607,-0.595 5.031,-1.598 l 33.43,33.43 2.121,-2.121 -33.43,-33.43 C 58.155,53.607 58.75,51.874 58.75,50 Z"
   style="display:inline;fill:#999999"
   id="path3894"
   inkscape:connector-curvature="0" />
</g>


</g></g><circle
   id="path3959"
   cx="50"
   cy="50"
   style="stroke-width:4;fill:#00ff00;stroke:#999999;stroke-opacity:1;stroke-miterlimit:4;stroke-dasharray:none"
   r="9" /></svg>