<?xml version="1.0" encoding="UTF-8" standalone="no"?>
<svg
   xmlns:dc="http://purl.org/dc/elements/1.1/"
   xmlns:cc="http://creativecommons.org/ns#"
   xmlns:rdf="http://www.w3.org/1999/02/22-rdf-syntax-ns#"
   xmlns:svg="http://www.w3.org/2000/svg"
   xmlns="http://www.w3.org/2000/svg"
   xmlns:sodipodi="http://sodipodi.sourceforge.net/DTD/sodipodi-0.dtd"
   xmlns:inkscape="http://www.inkscape.org/namespaces/inkscape"
   version="1.1"
   id="Layer_1"
   x="0px"
   y="0px"
   width="100px"
   height="100px"
   viewBox="0 0 100 100"
   enable-background="0 0 100 100"
   xml:space="preserve"
   sodipodi:docname="pump_vertical.svg"
   inkscape:version="0.92.3 (2405546, 2018-03-11)"><metadata
   id="metadata5622"><rdf:RDF><cc:Work
       rdf:about=""><dc:format>image/svg+xml</dc:format><dc:type
         rdf:resource="http://purl.org/dc/dcmitype/StillImage" /><dc:title></dc:title></cc:Work></rdf:RDF></metadata><sodipodi:namedview
   pagecolor="#ffffff"
   bordercolor="#666666"
   borderopacity="1"
   objecttolerance="10"
   gridtolerance="10"
   guidetolerance="10"
   inkscape:pageopacity="0"
   inkscape:pageshadow="2"
   inkscape:window-width="1920"
   inkscape:window-height="1137"
   id="namedview5620"
   showgrid="false"
   inkscape:zoom="4.84"
   inkscape:cx="-2.0144627"
   inkscape:cy="58.264463"
   inkscape:window-x="-8"
   inkscape:window-y="-8"
   inkscape:window-maximized="1"
   inkscape:current-layer="Layer_1"
   showguides="true"
   inkscape:guide-bbox="true"><sodipodi:guide
     position="-12.603306,50"
     orientation="0,1"
     id="guide5626"
     inkscape:locked="false" /><sodipodi:guide
     position="50.103306,107.2314"
     orientation="1,0"
     id="guide8019"
     inkscape:locked="false" /><sodipodi:guide
     position="-17.561983,24.173554"
     orientation="0,1"
     id="guide8042"
     inkscape:locked="false" /></sodipodi:namedview><desc
   id="desc5534">Copyright Opto 22</desc> <desc
   id="desc5536">Created with Snap</desc><defs
   id="defs5538" /><g
   id="g1470"
   transform="rotate(-90,46,53.964)"><rect
     ry="4"
     rx="4"
     y="40"
     x="2.4492127e-015"
     height="34"
     width="14"
     id="rect8025"
     style="display:inline;fill:#999999;fill-opacity:1;stroke:none;stroke-width:16;stroke-linecap:butt;stroke-linejoin:miter;stroke-miterlimit:4;stroke-dasharray:none;stroke-dashoffset:0;stroke-opacity:1;paint-order:stroke markers fill" /><rect
     ry="4"
     rx="4"
     y="40"
     x="86"
     height="34"
     width="14"
     id="rect8025-5"
     style="display:inline;fill:#999999;fill-opacity:1;stroke:none;stroke-width:16;stroke-linecap:butt;stroke-linejoin:miter;stroke-miterlimit:4;stroke-dasharray:none;stroke-dashoffset:0;stroke-opacity:1;paint-order:stroke markers fill" /><g
     transform="translate(0,7.964)"
     id="shape-8"><circle
       id="circle1955"
       style="fill:#999999"
       r="35.208"
       cy="50"
       cx="50.042" /><path
       inkscape:connector-curvature="0"
       id="path1957"
       style="fill:#999999"
       d="M 50,57.667 H 0 v -16 h 50 c 4.418,0 8,3.582 8,8 0,4.418 -3.582,8 -8,8 z" /><path
       sodipodi:nodetypes="ccccc"
       inkscape:connector-curvature="0"
       id="path1963"
       style="fill:#999999"
       d="m 80.326,42 c 0,16 0,0 0,16 H 100 V 42 Z" /></g><g
     transform="translate(-0.48,7.964)"
     id="dark-4"><path
       inkscape:connector-curvature="0"
       id="path1966"
       style="fill:#808080"
       d="m 50.042,15.875 c -15.971,0 -29.376,10.974 -33.096,25.792 H 50 c 4.418,0 8,3.582 8,8 0,4.418 -3.582,8 -8,8 H 16.792 c 3.48,15.153 17.04,26.458 33.25,26.458 18.847,0 34.125,-15.278 34.125,-34.125 0,-18.847 -15.279,-34.125 -34.125,-34.125 z" /></g><g
     style="fill:#00ff00"
     transform="matrix(0.76875222,0,0,0.76875222,36.336685,-78.41335)"
     id="dark-3"><path
       sodipodi:nodetypes="czzzcsssc"
       inkscape:connector-curvature="0"
       id="path1966-7"
       style="fill:#00ff00;stroke-width:1.2855314"
       d="m -14.949036,193.92953 c 0,0 12.6504147,20.46467 32.083744,20.11632 19.43333,-0.34836 37.235185,-12.31779 37.235185,-36.5462 0,-24.22841 -17.612802,-35.90449 -37.166286,-36.68399 -19.5534841,-0.7795 -33.053144,20.18728 -34.258803,25.55827 l 34.204811,0.20669 c 5.679373,0.0343 10.422048,4.88037 10.422048,10.55985 0,5.67947 -4.742572,10.21892 -10.422048,10.21536 l -33.958918,-0.0213" /></g><g
     style="fill:#999999"
     transform="translate(-0.0065,7.9335)"
     id="shadow"><path
       inkscape:connector-curvature="0"
       id="path1985"
       style="fill:#999999"
       d="m 50.042,21.292 c -12.932,0 -23.891,8.597 -27.47,20.375 h 1.045 c 3.546,-11.219 14.05,-19.375 26.425,-19.375 15.278,0 27.708,12.43 27.708,27.708 0,15.278 -12.43,27.708 -27.708,27.708 -12.619,0 -23.286,-8.482 -26.621,-20.041 h -1.04 C 25.744,69.785 36.867,78.708 50.041,78.708 65.871,78.708 78.75,65.83 78.75,50 78.75,34.17 65.871,21.292 50.042,21.292 Z" /><path
       inkscape:connector-curvature="0"
       id="path1987"
       style="fill:#999999"
       d="m 50.042,35.792 c -4.72,0 -8.898,2.323 -11.483,5.875 h 1.247 c 2.424,-2.972 6.111,-4.875 10.236,-4.875 7.283,0 13.208,5.925 13.208,13.208 0,7.283 -5.926,13.208 -13.208,13.208 -4.423,0 -8.336,-2.193 -10.734,-5.541 h -1.209 c 2.53,3.928 6.933,6.541 11.943,6.541 7.834,0 14.208,-6.374 14.208,-14.208 0,-7.834 -6.374,-14.208 -14.208,-14.208 z" /><polygon
       id="polygon1989"
       style="fill:#999999"
       points="50.963,19.823 49.037,19.823 48.074,18.155 49.037,16.488 50.963,16.488 51.926,18.155 " /><polygon
       id="polygon1991"
       style="fill:#999999"
       points="50.963,40.823 49.037,40.823 48.074,39.155 49.037,37.488 50.963,37.488 51.926,39.155 " /><polygon
       id="polygon1993"
       style="fill:#999999"
       points="50.963,62.323 49.037,62.323 48.074,60.655 49.037,58.988 50.963,58.988 51.926,60.655 " /><polygon
       id="polygon1995"
       style="fill:#999999"
       points="61.235,55.28 60.273,56.948 58.347,56.948 57.384,55.28 58.347,53.613 60.273,53.613 " /><polygon
       id="polygon1997"
       style="fill:#999999"
       points="60.273,42.863 61.235,44.53 60.273,46.198 58.347,46.198 57.384,44.53 58.347,42.863 " /><polygon
       id="polygon1999"
       style="fill:#999999"
       points="50.963,83.573 49.037,83.573 48.074,81.905 49.037,80.238 50.963,80.238 51.926,81.905 " /><polygon
       id="polygon2001"
       style="fill:#999999"
       points="35.73,23.389 34.063,24.351 32.395,23.389 32.395,21.463 34.063,20.5 35.73,21.463 " /><polygon
       id="polygon2003"
       style="fill:#999999"
       points="67.605,78.598 65.938,79.56 64.27,78.598 64.27,76.672 65.938,75.709 67.605,76.672 " /><polygon
       id="polygon2005"
       style="fill:#999999"
       points="24.321,34.093 23.358,35.76 21.433,35.76 20.47,34.093 21.433,32.425 23.358,32.425 " /><polygon
       id="polygon2007"
       style="fill:#999999"
       points="79.53,65.968 78.567,67.635 76.642,67.635 75.679,65.968 76.642,64.3 78.567,64.3 " /><polygon
       id="polygon2009"
       style="fill:#999999"
       points="83.543,49.067 83.543,50.993 81.875,51.956 80.207,50.993 80.207,49.067 81.875,48.105 " /><polygon
       id="polygon2011"
       style="fill:#999999"
       points="23.358,64.3 24.321,65.968 23.358,67.635 21.433,67.635 20.47,65.968 21.433,64.3 " /><polygon
       id="polygon2013"
       style="fill:#999999"
       points="78.567,32.425 79.53,34.093 78.567,35.76 76.642,35.76 75.679,34.093 76.642,32.425 " /><polygon
       id="polygon2015"
       style="fill:#999999"
       points="34.063,75.709 35.73,76.672 35.73,78.598 34.063,79.56 32.395,78.598 32.395,76.672 " /><polygon
       id="polygon2017"
       style="fill:#999999"
       points="65.938,20.5 67.605,21.463 67.605,23.389 65.938,24.351 64.27,23.389 64.27,21.463 " /></g></g></svg>